<?xml version="1.0" encoding="utf-8"?><svg viewBox="0 0 24 24" xmlns="http://www.w3.org/2000/svg" xmlns:xlink="http://www.w3.org/1999/xlink"><style>:root>svg{display:none}:root>svg:target{display:block}</style><svg fill="none" viewBox="0 0 16 16" id="arrow-down" xmlns="http://www.w3.org/2000/svg"><path fill-rule="evenodd" clip-rule="evenodd" d="M3.808 6.195a.667.667 0 10-.943.943l4.66 4.66a.665.665 0 00.95.006l.006-.005 4.66-4.66a.667.667 0 10-.943-.944L8.003 10.39 3.808 6.195z" fill="#2D3440"/></svg><svg fill="none" viewBox="0 0 16 16" id="arrow-left" xmlns="http://www.w3.org/2000/svg"><path fill-rule="evenodd" clip-rule="evenodd" d="M9.803 3.805a.665.665 0 10-.94-.94L4.195 7.533a.665.665 0 00-.003.938l.004.003 4.668 4.668a.665.665 0 10.94-.94L5.605 8.003l4.198-4.198z" fill="#2D3440"/></svg><svg fill="none" viewBox="0 0 16 16" id="arrow-right" xmlns="http://www.w3.org/2000/svg"><path fill-rule="evenodd" clip-rule="evenodd" d="M7.135 2.865a.665.665 0 10-.94.94l4.201 4.201-4.201 4.202a.665.665 0 00.94.94l4.669-4.669.003-.002c.26-.26.26-.681 0-.94L7.135 2.864z" fill="#2D3440"/></svg><svg fill="none" viewBox="0 0 16 16" id="arrow-tail-down" xmlns="http://www.w3.org/2000/svg"><path fill-rule="evenodd" clip-rule="evenodd" d="M8.67 1.337a.667.667 0 00-1.333 0V13.06L3.808 9.532a.667.667 0 10-.943.943l4.667 4.666c.26.26.682.26.943 0l4.666-4.666a.667.667 0 10-.943-.943L8.67 13.06V1.337z" fill="#2D3440"/></svg><svg fill="none" viewBox="0 0 16 16" id="arrow-tail-left" xmlns="http://www.w3.org/2000/svg"><path fill-rule="evenodd" clip-rule="evenodd" d="M6.475 3.808a.667.667 0 10-.943-.943L.865 7.532a.667.667 0 000 .943l4.667 4.666a.667.667 0 10.943-.943L2.946 8.67h11.727a.667.667 0 000-1.333H2.946l3.529-3.529z" fill="#2D3440"/></svg><svg fill="none" viewBox="0 0 16 16" id="arrow-tail-right" xmlns="http://www.w3.org/2000/svg"><path fill-rule="evenodd" clip-rule="evenodd" d="M10.478 2.865a.667.667 0 10-.943.943l3.529 3.529H1.337a.667.667 0 000 1.333h11.727l-3.529 3.528a.667.667 0 00.943.943l4.667-4.666a.667.667 0 000-.943l-4.667-4.667z" fill="#2D3440"/></svg><svg fill="none" viewBox="0 0 16 16" id="cart" xmlns="http://www.w3.org/2000/svg"><path fill-rule="evenodd" clip-rule="evenodd" d="M1.167 1.25a.667.667 0 000 1.333h1.77l.468 2.336a.664.664 0 00.011.053l.967 4.833a1.825 1.825 0 001.819 1.47h5.62a1.826 1.826 0 001.819-1.47l.001-.005.927-4.861a.667.667 0 00-.655-.792H4.611l-.473-2.361a.667.667 0 00-.654-.536H1.167zM5.69 9.544L4.878 5.48h8.23l-.775 4.067a.492.492 0 01-.492.395H6.183a.492.492 0 01-.492-.397zm-1.134 3.961a1.246 1.246 0 112.492 0 1.246 1.246 0 01-2.492 0zm6.374 0a1.246 1.246 0 112.491 0 1.246 1.246 0 01-2.491 0z" fill="#2D3440"/></svg><svg fill="none" viewBox="0 0 12 12" id="chevrons-right" xmlns="http://www.w3.org/2000/svg"><path fill-rule="evenodd" clip-rule="evenodd" d="M3.354 3.146a.5.5 0 10-.708.708L4.793 6 2.646 8.146a.5.5 0 10.708.708l2.5-2.5a.5.5 0 000-.708l-2.5-2.5zm3.5 0a.5.5 0 10-.708.708L8.293 6 6.146 8.146a.5.5 0 10.708.708l2.5-2.5a.5.5 0 000-.708l-2.5-2.5z" fill="#2D3440"/></svg><svg fill="none" viewBox="0 0 24 24" id="cow" xmlns="http://www.w3.org/2000/svg"><path d="M20.062 7.715A9.037 9.037 0 0020.405.55a.754.754 0 00-.253-.359.795.795 0 00-.855-.081.768.768 0 00-.32.304c-.991 1.714-3.122 4.477-4.683 4.606h-.07a13.005 13.005 0 00-2.177-.227c-.734.014-1.465.09-2.185.227h-.055C8.247 4.899 6.084 2.136 5.085.422a.766.766 0 00-.318-.325.802.802 0 00-.88.077.753.753 0 00-.253.376 8.997 8.997 0 00.304 7.158C2.58 7.874.856 8.296.231 9.36a1.612 1.612 0 000 1.66c.179.31.445.562.767.73.322.166.687.241 1.052.215a5.68 5.68 0 001.888-.363c-.005.408.029.815.102 1.216a25.83 25.83 0 001.365 3.926c.149.354.313.755.398.996a10.96 10.96 0 00-.6 1.873c-.038.452.02.906.171 1.336.15.43.39.825.703 1.163C7.208 23.366 9.198 24 12.023 24c2.825 0 4.823-.634 5.947-1.887.315-.337.555-.732.705-1.162.15-.43.208-.885.17-1.337-.142-.64-.34-1.267-.594-1.873.086-.241.25-.634.39-.996a24.462 24.462 0 001.366-3.926c.079-.4.115-.808.11-1.216.582.22 1.2.343 1.826.363a1.99 1.99 0 001.054-.216c.323-.167.591-.42.772-.728a1.613 1.613 0 000-1.661c-.617-1.027-2.341-1.48-3.707-1.646zm-.742-5.013a6.948 6.948 0 01-.78 4.613 8.293 8.293 0 00-.624-.657 5.615 5.615 0 00-1.491-.951 13.015 13.015 0 002.895-3.005zm-14.601 0a12.719 12.719 0 002.887 3.02 5.111 5.111 0 00-1.475.951 7.977 7.977 0 00-.632.657 6.962 6.962 0 01-.78-4.628zm-3.075 7.595c-.07-.12-.047-.158 0-.189.18-.294 1.085-.755 2.817-.928a9.602 9.602 0 00-.234.664c-1.015.506-2.372.823-2.583.453zm16.826 2.265a24.983 24.983 0 01-1.265 3.632c-.203.461-.383.932-.538 1.411l-.047.234.086.212c.247.575.448 1.169.6 1.774.01.238-.032.475-.119.698a1.797 1.797 0 01-.387.6c-.562.627-1.842 1.367-4.769 1.367-2.926 0-4.206-.755-4.768-1.366a1.816 1.816 0 01-.507-1.299c.156-.605.36-1.199.608-1.774l.086-.212-.054-.234a11.982 11.982 0 00-.531-1.42 24.313 24.313 0 01-1.28-3.653 5.253 5.253 0 01.212-2.6A5.401 5.401 0 017.24 7.73c1.179-1.147 3.848-1.404 4.777-1.412.928-.007 3.543.257 4.791 1.427a5.335 5.335 0 011.452 2.192c.29.835.362 1.726.21 2.595v.03zm3.902-2.265c-.203.362-1.561.053-2.529-.445a7.528 7.528 0 00-.226-.672c1.717.173 2.614.634 2.786.928.039.03.055.068-.016.19h-.015z" fill="#2D3440"/></svg><svg fill="none" viewBox="0 0 16 16" id="cross" xmlns="http://www.w3.org/2000/svg"><path fill-rule="evenodd" clip-rule="evenodd" d="M12.803 4.138a.667.667 0 10-.943-.943L8 7.056l-3.862-3.86a.667.667 0 10-.943.942L7.056 8l-3.86 3.861a.667.667 0 10.942.943L8 8.942l3.861 3.861a.667.667 0 10.943-.943L8.942 8l3.861-3.862z" fill="#2D3440"/></svg><svg fill="none" viewBox="0 0 16 16" id="facebook" xmlns="http://www.w3.org/2000/svg"><path fill-rule="evenodd" clip-rule="evenodd" d="M16 8A8 8 0 110 8a8 8 0 0116 0zm-6.381.6h-.952V12H7.143V8.6H6V7h1.143V5.88c0-1.217.734-1.88 1.769-1.88.495 0 .964.039 1.088.056V5.4h-.571c-.762 0-.762.388-.762.8V7H10l-.381 1.6z" fill="#2D3440"/></svg><svg fill="none" viewBox="0 0 16 16" id="heart-fill" xmlns="http://www.w3.org/2000/svg"><path d="M13.891 2.994a3.667 3.667 0 00-5.187 0l-.706.707-.707-.707a3.668 3.668 0 00-5.187 5.187l.707.707 5.187 5.187 5.186-5.187.707-.707a3.667 3.667 0 000-5.187z" fill="#2D3440"/></svg><svg fill="none" viewBox="0 0 24 24" id="ice-cream" xmlns="http://www.w3.org/2000/svg"><path d="M12 0a6.007 6.007 0 00-5.958 5.294H6V17.21h12V5.294h-.042A6.007 6.007 0 0012 0zm4.588 15.798H7.412V9.289a1.264 1.264 0 001.087.452c.91 0 1.503-.508 1.503-1.15v-.615a.605.605 0 01.851-.62.607.607 0 01.356.62V10.3a1.32 1.32 0 001.497 1.292 1.313 1.313 0 001.496-1.236v-1.56a.951.951 0 011.333-.954.953.953 0 01.566.954.281.281 0 000 .064.797.797 0 00.473.628v6.353l.014-.042zM10.941 22.941a1.059 1.059 0 102.118 0v-5.026H10.94v5.026z" fill="#2D3440"/></svg><svg fill="none" viewBox="0 0 24 24" id="ice-cream-cone" xmlns="http://www.w3.org/2000/svg"><path d="M12.026 1.202c.876 0 1.737.223 2.496.648a4.93 4.93 0 011.83 1.772 4.75 4.75 0 01.674 2.422 4.75 4.75 0 01-.66 2.426c.302.042.586.165.82.355.234.19.41.44.506.72.096.281.11.583.04.871-.07.288-.221.552-.437.762-.216.21-.487.356-.784.424a1.69 1.69 0 01-.897-.039 1.645 1.645 0 01-.741-.491 1.574 1.574 0 01-.365-.797c-.062.034-.126.067-.19.1a2.241 2.241 0 01-.787 1.357c-.42.347-.954.537-1.505.537-.552 0-1.085-.19-1.505-.537-.42-.348-.7-.829-.788-1.357l-.19-.1c-.042.294-.169.57-.364.797a1.646 1.646 0 01-.742.492c-.29.094-.6.107-.898.039a1.656 1.656 0 01-.784-.426 1.584 1.584 0 01-.436-.763c-.07-.289-.055-.59.042-.872.097-.28.273-.53.508-.72.235-.189.52-.31.822-.352a4.749 4.749 0 01-.66-2.424 4.75 4.75 0 01.673-2.422 4.93 4.93 0 011.828-1.772 5.113 5.113 0 012.494-.65zm0-1.202c-.982 0-1.95.224-2.825.655a6.191 6.191 0 00-2.213 1.828 5.965 5.965 0 00-1.12 2.602A5.89 5.89 0 006.083 7.9a2.774 2.774 0 00-1.057 1.808c-.1.712.088 1.435.523 2.016a2.886 2.886 0 001.813 1.106 2.944 2.944 0 002.097-.418c.333.336.733.604 1.175.786a3.666 3.666 0 002.797 0c.443-.182.842-.45 1.176-.786a2.945 2.945 0 002.072.37 2.884 2.884 0 001.775-1.103c.427-.573.614-1.281.524-1.983A2.77 2.77 0 0017.969 7.9a5.889 5.889 0 00.215-2.814 5.964 5.964 0 00-1.12-2.602A6.19 6.19 0 0014.85.655 6.385 6.385 0 0012.026 0z" fill="#2D3440"/><path d="M16.133 13.533a3.64 3.64 0 01-1.415-.289c-.065.052-.134.098-.203.146l.094.09-.69.669-.295-.287a4.462 4.462 0 01-.373.124l.417.405-.688.67-.693-.67.274-.266a4.212 4.212 0 01-1.045.002l.273.264-.69.67-.689-.67.414-.402a3.883 3.883 0 01-.371-.123l-.297.283-.697-.67.087-.084c-.073-.05-.144-.098-.212-.151-.447.19-.928.287-1.415.289h-.106a.58.58 0 00.029.278l3.602 9.808a.284.284 0 00.014.034.9.9 0 00.058.103l.017.023a.615.615 0 00.072.079l.018.013.069.052.032.017c.024.013.05.024.076.034h.02l.07.017h.028a.572.572 0 00.198 0h.03l.069-.017h.03a.712.712 0 00.074-.034l.032-.019a.39.39 0 00.07-.05l.019-.013a.772.772 0 00.072-.08l.014-.022a.559.559 0 00.043-.069l.031-.068 3.61-9.813a.56.56 0 00.029-.279c-.036 0-.062.006-.107.006zm-2.475 2.683l-.69.67-.68-.67.687-.67.683.67zm-2.314.912l.689-.67.69.67-.69.67-.69-.67zm1.378 1.825l-.689.67-.69-.67.69-.67.69.67zm-.689-4.318l.69.67-.69.664-.69-.67.69-.664zm-.25 1.581l-.689.67-.69-.67.69-.67.69.67zm-2.635-2.428l.067-.065.69.668-.395.376-.362-.979zm.488 1.345l.513-.498.687.67-.68.664-.317-.307-.203-.53zm.5 1.351l.02-.019.687.67-.345.343-.362-.994zm.737 2.018l-.25-.687.464-.45.69.67-.683.681-.22-.214zm.607 1.652l-.33-.897.627.608-.297.289zm.539 1.47l-.409-1.113.416-.404.405.393-.412 1.123zm.544-1.48l-.276-.279.603-.587-.327.865zm.608-1.62l-.2.192-.684-.676.688-.668.455.44-.259.712zm.393-1.07l-.334-.326.69-.67v.01l-.356.986zm.649-1.767l-.3.282-.69-.67.69-.67.496.494-.196.565zm.332-.92l-.384-.374.69-.67.056.055-.362.99z" fill="#2D3440"/></svg><svg fill="none" viewBox="0 0 16 16" id="info" xmlns="http://www.w3.org/2000/svg"><path fill-rule="evenodd" clip-rule="evenodd" d="M8 2.333a5.667 5.667 0 100 11.334A5.667 5.667 0 008 2.333zM1 8a7 7 0 1114 0A7 7 0 011 8zm7-.667c.368 0 .667.299.667.667v2.533a.667.667 0 11-1.334 0V8c0-.368.299-.667.667-.667zM8 4.8a.667.667 0 100 1.333h.007a.667.667 0 000-1.333H8z" fill="#2D3440"/></svg><svg fill="none" viewBox="0 0 16 16" id="instagram" xmlns="http://www.w3.org/2000/svg"><path fill-rule="evenodd" clip-rule="evenodd" d="M16 8A8 8 0 110 8a8 8 0 0116 0zM9.649 4.024C9.222 4.004 9.087 4 8 4s-1.222.005-1.649.024c-.426.02-.716.087-.971.186-.267.1-.509.258-.709.461-.203.2-.36.442-.461.709-.1.255-.166.545-.186.971C4.004 6.778 4 6.913 4 8s.005 1.222.024 1.649c.02.426.087.716.186.971.1.267.258.509.461.709.2.203.442.36.709.461.255.099.545.166.971.186.427.02.562.024 1.649.024s1.222-.005 1.649-.024c.426-.02.716-.087.971-.186.267-.1.509-.258.709-.461.203-.2.36-.442.461-.709.099-.255.166-.545.186-.971.02-.427.024-.562.024-1.649s-.005-1.222-.024-1.649a2.955 2.955 0 00-.186-.971 1.963 1.963 0 00-.461-.709 1.95 1.95 0 00-.709-.461c-.255-.1-.545-.166-.971-.186zM6.586 6.586a2 2 0 112.828 2.828 2 2 0 01-2.828-2.828zm3.868-1.04a.5.5 0 11-.708.708.5.5 0 01.708-.708zM8.849 7.151A1.2 1.2 0 107.15 8.85 1.2 1.2 0 008.85 7.15z" fill="#2D3440"/></svg><svg fill="none" viewBox="0 0 24 24" id="leaf" xmlns="http://www.w3.org/2000/svg"><path d="M18.993 13.864C18.688 7.057 12.757.466 12.493.179h-.034l-.082-.093-.088-.057h-.38L11.782 0h-.034l-.122.086-.075.064h-.033c-.265.316-6.196 6.914-6.514 13.714-.004.05-.004.1 0 .15v.781c.257 7.38 6.778 9.185 6.832 9.2h.17a.686.686 0 00.17 0c.06 0 6.574-1.856 6.825-9.2v-.78c0-.05-.007-.101-.007-.151zM6.792 11.349a16.67 16.67 0 004.535 2.945v3.26c-1.66-.867-4.216-2.408-4.969-3.762.061-.827.2-1.645.414-2.443h.02zm1.356-3.654a8.33 8.33 0 003.179 2.192v2.823A13.01 13.01 0 017.26 9.844c.258-.733.554-1.45.888-2.15zm8.615 2.15a12.976 12.976 0 01-4.067 2.865V9.887a8.335 8.335 0 003.152-2.192c.342.688.647 1.396.915 2.12v.03zm-4.067-1.477V2.637a32.43 32.43 0 012.474 3.711 6.21 6.21 0 01-2.488 1.992l.014.028zm0 9.2v-3.274a16.66 16.66 0 004.555-2.93c.208.8.34 1.621.393 2.45-.745 1.332-3.3 2.866-4.961 3.725l.013.029zm-1.356-9.2a6.155 6.155 0 01-2.487-2.02 32.449 32.449 0 012.474-3.747l.013 5.767zM6.5 16.056a22.623 22.623 0 004.827 3.074v3.152a8.011 8.011 0 01-3.163-2.463 8.64 8.64 0 01-1.663-3.763zm6.182 6.233v-3.166a22.251 22.251 0 004.827-3.067 8.526 8.526 0 01-1.65 3.777 7.896 7.896 0 01-3.177 2.457z" fill="#2D3440"/></svg><svg fill="none" viewBox="0 0 16 16" id="login" xmlns="http://www.w3.org/2000/svg"><path fill-rule="evenodd" clip-rule="evenodd" d="M9 1.667C9 1.298 9.298 1 9.667 1h2.666a2 2 0 012 2v9.333a2 2 0 01-2 2H9.667a.667.667 0 110-1.333h2.666a.666.666 0 00.667-.667V3a.666.666 0 00-.667-.667H9.667A.667.667 0 019 1.667zM5.862 3.862c.26-.26.682-.26.943 0l3.329 3.329a.69.69 0 01.129.177.664.664 0 01-.13.775L6.806 11.47a.667.667 0 11-.943-.942l2.195-2.196h-6.39a.667.667 0 110-1.333h6.39L5.862 4.805a.667.667 0 010-.943z" fill="#2D3440"/></svg><svg fill="none" viewBox="0 0 14 14" id="search" xmlns="http://www.w3.org/2000/svg"><path fill-rule="evenodd" clip-rule="evenodd" d="M1.663 6.33a4.667 4.667 0 118.028 3.238.672.672 0 00-.123.123A4.667 4.667 0 011.664 6.33zm8.412 4.688a6 6 0 11.943-.943l2.45 2.45a.667.667 0 11-.943.943l-2.45-2.45z" fill="#2D3440"/></svg><svg fill="none" viewBox="0 0 24 24" id="thermometer" xmlns="http://www.w3.org/2000/svg"><path d="M14.392 3.802a3.975 3.975 0 00-1.025-2.688C12.71.4 11.82 0 10.892 0c-.929 0-1.819.4-2.475 1.114a3.975 3.975 0 00-1.025 2.688v11.066c-.898.995-1.398 2.334-1.392 3.727-.002.892.2 1.77.586 2.557a5.256 5.256 0 001.632 1.95c.685.493 1.47.794 2.289.875a4.608 4.608 0 002.396-.407 5.028 5.028 0 001.933-1.593 5.616 5.616 0 001.006-2.398 5.835 5.835 0 00-.161-2.63 5.474 5.474 0 00-1.29-2.232V3.802zm.125 14.793c.007.66-.141 1.31-.43 1.89-.29.58-.711 1.07-1.224 1.423a3.37 3.37 0 01-1.707.595 3.323 3.323 0 01-1.757-.382 3.661 3.661 0 01-1.364-1.263 4.08 4.08 0 01-.625-1.826 4.172 4.172 0 01.273-1.924c.24-.606.619-1.135 1.1-1.537V3.802c0-.607.222-1.19.618-1.62.395-.429.931-.67 1.49-.67.56 0 1.096.241 1.492.67.395.43.617 1.013.617 1.62v11.626c.47.355.853.829 1.117 1.38.264.552.401 1.165.4 1.787z" fill="#2D3440"/><path d="M11.65 16.229V3.855a.79.79 0 00-.204-.534.669.669 0 00-.492-.222.669.669 0 00-.492.222.79.79 0 00-.204.534v12.374c-.464.178-.855.529-1.104.99a2.435 2.435 0 00-.257 1.531 2.32 2.32 0 00.712 1.35c.376.345.853.534 1.345.534.493 0 .97-.189 1.346-.533a2.32 2.32 0 00.712-1.35 2.434 2.434 0 00-.257-1.532 2.137 2.137 0 00-1.105-.99zM20 2.956h-4.175v1.511H20V2.956zM20 5.979h-4.175v1.512H20V5.979zM20 9.003h-4.175v1.511H20V9.003zM20 12.026h-4.175v1.512H20v-1.512z" fill="#2D3440"/></svg><svg fill="none" viewBox="0 0 16 16" id="vk" xmlns="http://www.w3.org/2000/svg"><path fill-rule="evenodd" clip-rule="evenodd" d="M16 8A8 8 0 110 8a8 8 0 0116 0zM8.392 9.983h-.478s-1.055.056-1.984-.792c-1.013-.925-1.908-2.76-1.908-2.76s-.052-.12.004-.178c.063-.066.235-.07.235-.07l1.143-.006s.108.016.185.065c.063.041.099.118.099.118s.185.41.43.78c.477.723.7.881.861.803.237-.112.166-1.022.166-1.022s.004-.33-.12-.477c-.095-.114-.275-.147-.354-.156-.065-.008.041-.139.178-.198.206-.088.569-.093.998-.09.334.004.43.022.561.05.304.064.294.27.274.714a9.697 9.697 0 00-.013.464l-.003.126c-.007.228-.015.488.156.585.087.05.301.007.837-.79.254-.378.444-.822.444-.822s.042-.08.107-.113c.066-.035.155-.024.155-.024l1.203-.007s.361-.038.42.105c.061.15-.135.5-.627 1.075-.463.541-.69.743-.672.92.013.13.16.247.445.48.592.481.75.734.788.794a.326.326 0 00.007.01c.265.386-.294.416-.294.416l-1.069.013s-.23.04-.531-.142c-.158-.095-.313-.25-.46-.398-.225-.226-.433-.435-.61-.386-.298.083-.289.646-.289.646s.002.12-.066.184c-.073.07-.218.083-.218.083z" fill="#2D3440"/></svg></svg>